<svg xmlns="http://www.w3.org/2000/svg" xmlns:xlink="http://www.w3.org/1999/xlink" width="1080" zoomAndPan="magnify" viewBox="0 0 810 809.999993" height="1080" preserveAspectRatio="xMidYMid meet" version="1.0"><defs><clipPath id="742444c0dd"><path d="M 312 68 L 600.421875 68 L 600.421875 537 L 312 537 Z M 312 68 " clip-rule="nonzero"/></clipPath><clipPath id="8241fded51"><path d="M 209.671875 627 L 458 627 L 458 742 L 209.671875 742 Z M 209.671875 627 " clip-rule="nonzero"/></clipPath></defs><path fill="#ff6b00" d="M 426.929688 386.140625 C 426.929688 398.496094 422.121094 410.109375 413.382812 418.84375 L 368.921875 463.296875 C 390.914062 493.9375 389.398438 526.570312 364.339844 558.167969 C 360.863281 562.550781 354.492188 563.285156 350.113281 559.8125 C 345.730469 556.339844 344.996094 549.96875 348.46875 545.589844 C 369.660156 518.867188 369.417969 494.542969 347.707031 469.035156 C 344.285156 465.019531 344.527344 459.046875 348.257812 455.316406 L 399.0625 404.527344 C 403.972656 399.613281 406.679688 393.085938 406.679688 386.140625 C 406.679688 379.195312 403.972656 372.667969 399.0625 367.757812 C 388.921875 357.617188 372.421875 357.617188 362.28125 367.757812 L 294.773438 435.246094 C 290.820312 439.199219 284.40625 439.199219 280.453125 435.246094 C 276.496094 431.292969 276.496094 424.882812 280.453125 420.929688 L 347.960938 353.4375 C 365.996094 335.40625 395.34375 335.40625 413.382812 353.4375 C 422.121094 362.171875 426.929688 373.789062 426.929688 386.140625 Z M 426.929688 386.140625 " fill-opacity="1" fill-rule="nonzero"/><g clip-path="url(#742444c0dd)"><path fill="#ff6b00" d="M 600.414062 78.328125 L 600.414062 526.335938 C 600.414062 531.925781 595.878906 536.460938 590.285156 536.460938 L 370.992188 536.460938 C 365.402344 536.460938 360.867188 531.925781 360.867188 526.335938 C 360.867188 520.742188 365.402344 516.210938 370.992188 516.210938 L 580.160156 516.210938 L 580.160156 88.453125 L 333.117188 88.453125 L 333.117188 392.71875 C 333.117188 398.3125 328.582031 402.84375 322.992188 402.84375 C 317.398438 402.84375 312.863281 398.3125 312.863281 392.71875 L 312.863281 78.328125 C 312.863281 72.734375 317.398438 68.203125 322.992188 68.203125 L 590.285156 68.203125 C 595.878906 68.203125 600.414062 72.734375 600.414062 78.328125 Z M 600.414062 78.328125 " fill-opacity="1" fill-rule="nonzero"/></g><path fill="#ff6b00" d="M 460.164062 530.964844 C 460.164062 564.660156 450.167969 590.15625 430.40625 606.882812 L 430.40625 637.355469 C 430.40625 642.945312 425.871094 647.476562 420.277344 647.476562 L 247.324219 647.476562 C 241.730469 647.476562 237.195312 642.945312 237.195312 637.355469 L 237.195312 632.816406 C 237.195312 617.425781 234.585938 602.269531 229.4375 587.765625 L 224.5 573.855469 C 218.578125 557.167969 215.574219 539.734375 215.574219 522.03125 L 215.574219 443.875 C 215.574219 402.480469 231.699219 363.5625 260.976562 334.292969 L 315.832031 279.453125 C 319.785156 275.5 326.195312 275.5 330.152344 279.453125 C 334.105469 283.40625 334.105469 289.816406 330.152344 293.773438 L 275.300781 348.609375 C 249.847656 374.058594 235.828125 407.890625 235.828125 443.875 L 235.828125 522.03125 C 235.828125 537.421875 238.4375 552.578125 243.585938 567.082031 L 248.523438 580.992188 C 253.824219 595.917969 256.785156 611.445312 257.347656 627.230469 L 410.152344 627.230469 L 410.152344 601.984375 C 410.152344 598.769531 411.679688 595.746094 414.265625 593.839844 C 432.367188 580.488281 440.730469 558.503906 439.847656 526.617188 C 439.695312 520.957031 444.097656 516.371094 449.691406 516.214844 C 455.28125 516.058594 459.9375 520.464844 460.09375 526.054688 C 460.140625 527.707031 460.164062 529.347656 460.164062 530.964844 Z M 460.164062 530.964844 " fill-opacity="1" fill-rule="nonzero"/><g clip-path="url(#8241fded51)"><path fill="#ff6b00" d="M 457.921875 637.355469 L 457.921875 731.671875 C 457.921875 737.265625 453.386719 741.796875 447.792969 741.796875 L 219.808594 741.796875 C 214.214844 741.796875 209.679688 737.265625 209.679688 731.671875 L 209.679688 637.355469 C 209.679688 631.761719 214.214844 627.230469 219.808594 627.230469 L 447.792969 627.230469 C 453.386719 627.230469 457.921875 631.761719 457.921875 637.355469 Z M 437.667969 721.546875 L 437.667969 647.476562 L 229.933594 647.476562 L 229.933594 721.546875 Z M 437.667969 721.546875 " fill-opacity="1" fill-rule="nonzero"/></g><path fill="#ff6b00" d="M 508.039062 303.316406 C 508.039062 332.191406 484.539062 355.683594 455.65625 355.683594 C 426.773438 355.683594 403.273438 332.191406 403.273438 303.316406 C 403.273438 274.4375 426.773438 250.941406 455.65625 250.941406 C 484.539062 250.941406 508.039062 274.4375 508.039062 303.316406 Z M 423.527344 303.316406 C 423.527344 321.027344 437.941406 335.4375 455.65625 335.4375 C 473.371094 335.4375 487.785156 321.027344 487.785156 303.316406 C 487.785156 285.601562 473.371094 271.191406 455.65625 271.191406 C 437.941406 271.191406 423.527344 285.601562 423.527344 303.316406 Z M 423.527344 303.316406 " fill-opacity="1" fill-rule="nonzero"/><path fill="#ff6b00" d="M 553.242188 163.625 L 553.242188 439.074219 C 553.242188 444.664062 548.710938 449.195312 543.117188 449.195312 C 525.5 449.195312 511.164062 463.527344 511.164062 481.140625 C 511.164062 486.734375 506.628906 491.265625 501.039062 491.265625 L 408.308594 491.265625 C 402.71875 491.265625 398.183594 486.734375 398.183594 481.140625 C 398.183594 467.117188 389.203125 454.867188 375.835938 450.664062 C 370.5 448.984375 367.539062 443.296875 369.214844 437.964844 C 370.894531 432.632812 376.582031 429.667969 381.914062 431.347656 C 400.46875 437.183594 413.851562 452.5 417.460938 471.019531 L 491.898438 471.019531 C 495.976562 450.339844 512.308594 434.011719 532.992188 429.933594 L 532.992188 172.765625 C 512.308594 168.6875 495.976562 152.359375 491.898438 131.679688 L 417.449219 131.679688 C 413.371094 152.359375 397.039062 168.6875 376.355469 172.765625 L 376.355469 353.027344 C 376.355469 358.621094 371.824219 363.152344 366.230469 363.152344 C 360.636719 363.152344 356.101562 358.621094 356.101562 353.027344 L 356.101562 163.625 C 356.101562 158.035156 360.636719 153.503906 366.230469 153.503906 C 383.847656 153.503906 398.183594 139.171875 398.183594 121.558594 C 398.183594 115.964844 402.71875 111.433594 408.308594 111.433594 L 501.039062 111.433594 C 506.628906 111.433594 511.164062 115.964844 511.164062 121.558594 C 511.164062 139.171875 525.5 153.503906 543.117188 153.503906 C 548.710938 153.503906 553.242188 158.035156 553.242188 163.625 Z M 553.242188 163.625 " fill-opacity="1" fill-rule="nonzero"/></svg>