<svg xmlns="http://www.w3.org/2000/svg" xmlns:xlink="http://www.w3.org/1999/xlink" width="1080" zoomAndPan="magnify" viewBox="0 0 810 809.999993" height="1080" preserveAspectRatio="xMidYMid meet" version="1.0"><defs><clipPath id="44eee07dbc"><path d="M 104.738281 138.902344 L 695.738281 138.902344 L 695.738281 618.902344 L 104.738281 618.902344 Z M 104.738281 138.902344 " clip-rule="nonzero"/></clipPath><clipPath id="1a9fa63604"><path d="M 419.140625 342.472656 L 705.261719 342.472656 L 705.261719 628.59375 L 419.140625 628.59375 Z M 419.140625 342.472656 " clip-rule="nonzero"/></clipPath><clipPath id="9de0009e14"><path d="M 562.203125 342.472656 C 483.191406 342.472656 419.140625 406.523438 419.140625 485.535156 C 419.140625 564.542969 483.191406 628.59375 562.203125 628.59375 C 641.210938 628.59375 705.261719 564.542969 705.261719 485.535156 C 705.261719 406.523438 641.210938 342.472656 562.203125 342.472656 Z M 562.203125 342.472656 " clip-rule="nonzero"/></clipPath><clipPath id="43e35a0db2"><path d="M 461 342.472656 L 663 342.472656 L 663 634.222656 L 461 634.222656 Z M 461 342.472656 " clip-rule="nonzero"/></clipPath></defs><g clip-path="url(#44eee07dbc)"><path fill="#ff6b00" d="M 160.070312 138.832031 C 129.699219 138.832031 104.738281 163.929688 104.738281 194.359375 L 104.738281 489.597656 C 104.738281 520.03125 129.699219 545.054688 160.070312 545.054688 L 449.871094 545.054688 C 470.722656 588.609375 515.164062 618.828125 566.527344 618.828125 C 637.15625 618.828125 694.871094 561.566406 695.664062 491.183594 C 695.738281 490.679688 695.738281 490.101562 695.738281 489.597656 L 695.738281 194.359375 C 695.738281 164 670.777344 138.832031 640.402344 138.832031 Z M 160.070312 175.753906 L 640.402344 175.753906 C 650.792969 175.753906 658.800781 183.902344 658.800781 194.359375 L 658.800781 212.679688 L 141.675781 212.679688 L 141.675781 194.359375 C 141.675781 183.902344 149.683594 175.753906 160.070312 175.753906 Z M 141.675781 249.601562 L 658.800781 249.601562 L 658.800781 286.523438 L 141.675781 286.523438 Z M 141.675781 323.519531 L 658.800781 323.519531 L 658.800781 399.382812 C 635.28125 375.441406 602.601562 360.441406 566.527344 360.441406 C 495.324219 360.441406 437.101562 418.492188 437.101562 489.597656 C 437.101562 495.945312 437.753906 502.074219 438.617188 508.132812 L 160.070312 508.132812 C 149.683594 508.132812 141.675781 500.054688 141.675781 489.597656 Z M 566.527344 397.363281 C 617.75 397.363281 658.800781 438.394531 658.800781 489.597656 C 658.800781 540.871094 617.75 582.046875 566.527344 582.046875 C 515.234375 582.046875 474.039062 540.871094 474.039062 489.597656 C 474.039062 438.394531 515.234375 397.363281 566.527344 397.363281 Z M 178.613281 415.753906 C 168.511719 415.753906 160.144531 424.117188 160.144531 434.214844 C 160.144531 444.382812 168.511719 452.675781 178.613281 452.675781 L 363.371094 452.675781 C 373.542969 452.675781 381.839844 444.382812 381.839844 434.214844 C 381.839844 424.117188 373.542969 415.753906 363.371094 415.753906 Z M 607.578125 446.039062 C 602.746094 446.183594 598.128906 448.203125 594.738281 451.59375 L 552.605469 493.707031 L 533.054688 474.09375 C 529.589844 470.34375 524.683594 468.179688 519.5625 468.179688 C 509.460938 468.179688 501.09375 476.542969 501.09375 486.640625 C 501.09375 491.761719 503.257812 496.59375 506.9375 500.125 L 539.617188 532.792969 C 546.832031 539.933594 558.519531 539.933594 565.734375 532.792969 L 620.851562 477.625 C 624.386719 474.164062 626.40625 469.40625 626.40625 464.5 C 626.40625 454.40625 618.039062 446.039062 607.9375 446.039062 C 607.792969 446.039062 607.648438 446.039062 607.578125 446.039062 " fill-opacity="1" fill-rule="evenodd"/></g><g clip-path="url(#1a9fa63604)"><g clip-path="url(#9de0009e14)"><path fill="#ffffff" d="M 419.140625 342.472656 L 705.261719 342.472656 L 705.261719 628.59375 L 419.140625 628.59375 Z M 419.140625 342.472656 " fill-opacity="1" fill-rule="nonzero"/></g></g><g clip-path="url(#43e35a0db2)"><path fill="#ff6b00" d="M 562.355469 342.472656 C 519.921875 342.472656 485.398438 376.910156 485.398438 419.234375 L 485.398438 462.859375 C 471.929688 465.46875 461.722656 477.289062 461.722656 491.472656 L 461.722656 605.050781 C 461.722656 621.136719 474.839844 634.222656 490.972656 634.222656 L 633.738281 634.222656 C 649.871094 634.222656 662.992188 621.136719 662.992188 605.050781 L 662.992188 491.472656 C 662.992188 477.289062 652.78125 465.46875 639.316406 462.859375 L 639.316406 419.234375 C 639.316406 376.910156 604.789062 342.472656 562.355469 342.472656 Z M 504.898438 419.234375 C 504.898438 387.632812 530.671875 361.925781 562.355469 361.925781 C 594.039062 361.925781 619.816406 387.632812 619.816406 419.234375 L 619.816406 462.300781 L 504.898438 462.300781 Z M 643.488281 491.472656 L 643.488281 605.050781 C 643.488281 610.410156 639.113281 614.773438 633.738281 614.773438 L 490.972656 614.773438 C 485.597656 614.773438 481.222656 610.410156 481.222656 605.050781 L 481.222656 491.472656 C 481.222656 486.113281 485.597656 481.75 490.972656 481.75 L 633.738281 481.75 C 639.113281 481.75 643.488281 486.113281 643.488281 491.472656 Z M 643.488281 491.472656 " fill-opacity="1" fill-rule="nonzero"/></g><path fill="#ff6b00" d="M 562.355469 505.585938 C 543.058594 505.585938 527.359375 521.246094 527.359375 540.492188 C 527.359375 556.339844 538.070312 569.601562 552.605469 573.84375 L 552.605469 581.214844 C 552.605469 586.585938 556.972656 590.941406 562.355469 590.941406 C 567.742188 590.941406 572.105469 586.585938 572.105469 581.214844 L 572.105469 573.84375 C 586.640625 569.601562 597.351562 556.339844 597.351562 540.492188 C 597.351562 521.246094 581.652344 505.585938 562.355469 505.585938 Z M 562.355469 555.945312 C 553.808594 555.945312 546.859375 549.011719 546.859375 540.492188 C 546.859375 531.96875 553.808594 525.035156 562.355469 525.035156 C 570.902344 525.035156 577.851562 531.96875 577.851562 540.492188 C 577.851562 549.011719 570.902344 555.945312 562.355469 555.945312 Z M 562.355469 555.945312 " fill-opacity="1" fill-rule="nonzero"/></svg>