<svg xmlns="http://www.w3.org/2000/svg" xmlns:xlink="http://www.w3.org/1999/xlink" width="1080" zoomAndPan="magnify" viewBox="0 0 810 809.999993" height="1080" preserveAspectRatio="xMidYMid meet" version="1.0"><defs><clipPath id="be7816a38a"><path d="M 112.5 101.890625 L 674 101.890625 L 674 663 L 112.5 663 Z M 112.5 101.890625 " clip-rule="nonzero"/></clipPath></defs><g clip-path="url(#be7816a38a)"><path fill="#ff6b00" d="M 454.886719 621.839844 C 435.066406 626.953125 414.28125 629.660156 392.875 629.660156 C 256.003906 629.660156 144.878906 518.578125 144.878906 381.753906 C 144.878906 244.929688 256.003906 133.84375 392.875 133.84375 C 529.746094 133.84375 640.871094 244.929688 640.871094 381.753906 C 640.871094 394.84375 639.855469 407.710938 637.894531 420.25 C 636.484375 429.261719 642.65625 437.726562 651.671875 439.136719 C 660.6875 440.546875 669.152344 434.375 670.5625 425.363281 C 672.789062 411.148438 673.9375 396.582031 673.9375 381.753906 C 673.9375 226.683594 548 100.789062 392.875 100.789062 C 237.75 100.789062 111.8125 226.683594 111.8125 381.753906 C 111.8125 536.824219 237.75 662.714844 392.875 662.714844 C 417.125 662.714844 440.667969 659.632812 463.128906 653.859375 C 471.96875 651.566406 477.304688 642.554688 475.011719 633.714844 C 472.742188 624.878906 463.726562 619.570312 454.886719 621.839844 Z M 454.886719 621.839844 " fill-opacity="1" fill-rule="evenodd"/></g><path fill="#ff6b00" d="M 376.34375 374.898438 L 376.34375 227.5 C 376.34375 218.375 383.75 210.972656 392.875 210.972656 C 402.003906 210.972656 409.410156 218.375 409.410156 227.5 L 409.410156 381.753906 C 409.410156 386.136719 407.667969 390.347656 404.558594 393.433594 L 327.40625 470.558594 C 320.96875 477.015625 310.476562 477.015625 304.039062 470.558594 C 297.578125 464.125 297.578125 453.636719 304.039062 447.199219 Z M 376.34375 374.898438 " fill-opacity="1" fill-rule="evenodd"/><path fill="#ff6b00" d="M 569.226562 393.453125 C 522.78125 393.453125 482.59375 402.753906 462.558594 415.25 C 448.582031 423.976562 442.476562 435.148438 442.476562 445.660156 C 442.476562 456.167969 448.582031 467.34375 462.558594 476.070312 C 482.59375 488.5625 522.78125 497.863281 569.226562 497.863281 C 615.675781 497.863281 655.859375 488.5625 675.898438 476.070312 C 689.875 467.34375 695.980469 456.167969 695.980469 445.660156 C 695.980469 435.148438 689.875 423.976562 675.898438 415.25 C 655.859375 402.753906 615.675781 393.453125 569.226562 393.453125 Z M 661.109375 445.660156 C 658.816406 443.917969 655 441.25 651.496094 439.707031 C 632.933594 431.53125 602.957031 426.507812 569.226562 426.507812 C 535.5 426.507812 505.519531 431.53125 486.960938 439.707031 C 483.453125 441.25 479.640625 443.917969 477.347656 445.660156 C 479.640625 447.398438 483.453125 450.066406 486.960938 451.609375 C 505.519531 459.785156 535.5 464.808594 569.226562 464.808594 C 602.957031 464.808594 632.933594 459.785156 651.496094 451.609375 C 655 450.066406 658.816406 447.398438 661.109375 445.660156 Z M 661.109375 445.660156 " fill-opacity="1" fill-rule="evenodd"/><path fill="#ff6b00" d="M 663.222656 517.167969 C 664.699219 509.5625 671.402344 503.8125 679.449219 503.8125 C 688.574219 503.8125 695.980469 511.214844 695.980469 520.339844 C 695.980469 529.96875 689.898438 540.964844 674.953125 548.988281 C 655.113281 559.609375 615.257812 567.496094 569.226562 567.496094 C 523.199219 567.496094 483.34375 559.609375 463.503906 548.988281 C 448.558594 540.964844 442.476562 529.96875 442.476562 520.339844 C 442.476562 511.214844 449.882812 503.8125 459.007812 503.8125 C 467.054688 503.8125 473.753906 509.5625 475.230469 517.167969 C 476.953125 518.289062 481.800781 521.332031 486.144531 522.984375 C 504.882812 530.078125 535.148438 534.441406 569.226562 534.441406 C 603.308594 534.441406 633.574219 530.078125 652.3125 522.984375 C 656.65625 521.332031 661.503906 518.289062 663.222656 517.167969 Z M 663.222656 517.167969 " fill-opacity="1" fill-rule="evenodd"/><path fill="#ff6b00" d="M 663.222656 586.800781 C 664.699219 579.199219 671.402344 573.449219 679.449219 573.449219 C 688.574219 573.449219 695.980469 580.851562 695.980469 589.972656 C 695.980469 599.625 689.898438 610.601562 674.953125 618.621094 C 655.113281 629.242188 615.257812 637.15625 569.226562 637.15625 C 523.199219 637.15625 483.34375 629.242188 463.503906 618.621094 C 448.558594 610.601562 442.476562 599.625 442.476562 589.972656 C 442.476562 580.851562 449.882812 573.449219 459.007812 573.449219 C 467.054688 573.449219 473.753906 579.199219 475.230469 586.800781 C 476.953125 587.925781 481.800781 590.964844 486.144531 592.617188 C 504.882812 599.714844 535.148438 604.101562 569.226562 604.101562 C 603.308594 604.101562 633.574219 599.714844 652.3125 592.617188 C 656.65625 590.964844 661.503906 587.925781 663.222656 586.800781 Z M 663.222656 586.800781 " fill-opacity="1" fill-rule="evenodd"/><path fill="#ff6b00" d="M 663.222656 656.4375 C 664.699219 648.832031 671.402344 643.105469 679.449219 643.105469 C 688.574219 643.105469 695.980469 650.507812 695.980469 659.632812 C 695.980469 669.261719 689.898438 680.257812 674.953125 688.257812 C 655.113281 698.898438 615.257812 706.789062 569.226562 706.789062 C 523.199219 706.789062 483.34375 698.898438 463.503906 688.257812 C 448.558594 680.257812 442.476562 669.261719 442.476562 659.632812 C 442.476562 650.507812 449.882812 643.105469 459.007812 643.105469 C 467.054688 643.105469 473.753906 648.832031 475.230469 656.4375 C 476.953125 657.558594 481.800781 660.601562 486.144531 662.253906 C 504.882812 669.371094 535.148438 673.734375 569.226562 673.734375 C 603.308594 673.734375 633.574219 669.371094 652.3125 662.253906 C 656.65625 660.601562 661.503906 657.558594 663.222656 656.4375 Z M 663.222656 656.4375 " fill-opacity="1" fill-rule="evenodd"/><path fill="#ff6b00" d="M 695.980469 445.660156 L 695.980469 657.207031 C 695.980469 666.042969 689.039062 673.273438 680.308594 673.710938 L 679.449219 673.734375 C 670.320312 673.734375 662.914062 666.332031 662.914062 657.207031 L 662.914062 445.660156 Z M 695.980469 445.660156 " fill-opacity="1" fill-rule="evenodd"/><path fill="#ff6b00" d="M 475.539062 445.660156 L 475.539062 657.207031 C 475.539062 666.042969 468.597656 673.273438 459.867188 673.710938 L 459.007812 673.734375 C 449.882812 673.734375 442.476562 666.332031 442.476562 657.207031 L 442.476562 445.660156 Z M 475.539062 445.660156 " fill-opacity="1" fill-rule="evenodd"/></svg>