<svg xmlns="http://www.w3.org/2000/svg" xmlns:xlink="http://www.w3.org/1999/xlink" width="1080" zoomAndPan="magnify" viewBox="0 0 810 809.999993" height="1080" preserveAspectRatio="xMidYMid meet" version="1.0"><defs><clipPath id="a9b1b2660f"><path d="M 112.5 118.714844 L 697 118.714844 L 697 690.964844 L 112.5 690.964844 Z M 112.5 118.714844 " clip-rule="nonzero"/></clipPath></defs><g clip-path="url(#a9b1b2660f)"><path fill="#ff6b00" d="M 681.402344 371.8125 C 680.429688 381.921875 672.078125 387.628906 662.875 388.925781 C 665.488281 383.105469 666.304688 376.644531 664.773438 370.074219 C 660.902344 353.46875 630.53125 340.792969 623.066406 362.257812 C 618.566406 375.214844 624.96875 388.628906 636.980469 396.210938 C 633.390625 397.972656 629.296875 399.167969 624.929688 399.710938 C 624.203125 399.796875 623.5625 399.957031 622.980469 400.167969 C 622.980469 400.167969 622.980469 400.15625 622.96875 400.15625 C 610.496094 379.789062 592.425781 361.136719 569.308594 345.121094 C 547.820312 330.25 523.113281 318.464844 496.296875 310.09375 C 512.960938 289.863281 522.976562 263.972656 522.976562 235.789062 C 522.976562 171.234375 470.425781 118.714844 405.839844 118.714844 C 341.25 118.714844 288.699219 171.234375 288.699219 235.789062 C 288.699219 250.140625 291.289062 263.898438 296.050781 276.609375 C 279.042969 262.46875 252.851562 250.730469 212.628906 246.910156 C 209.382812 246.601562 206.1875 247.871094 204.066406 250.347656 C 201.945312 252.804688 201.128906 256.144531 201.90625 259.3125 L 222.867188 344.863281 C 196.566406 362.984375 176.285156 385.089844 163.679688 409.351562 L 145.410156 409.351562 C 127.375 409.351562 112.710938 422.445312 112.710938 438.535156 L 112.710938 514.578125 C 112.710938 530.65625 127.375 543.75 145.410156 543.75 L 171.957031 543.75 C 188.03125 567.914062 211.9375 589.242188 241.640625 605.933594 L 241.640625 661.796875 C 241.640625 677.886719 256.308594 690.964844 274.34375 690.964844 L 317.417969 690.964844 C 335.453125 690.964844 350.121094 677.886719 350.121094 661.796875 L 350.121094 640.875 C 365.15625 642.859375 380.5 643.84375 395.859375 643.84375 C 416.421875 643.84375 436.765625 642.082031 456.488281 638.59375 L 456.488281 661.785156 C 456.488281 677.871094 471.15625 690.953125 489.191406 690.953125 L 532.253906 690.953125 C 550.289062 690.953125 564.953125 677.871094 564.953125 661.785156 L 564.953125 600.410156 C 564.953125 599.265625 564.882812 598.128906 564.734375 597.007812 C 614.640625 564.152344 643.074219 518.042969 643.074219 469.542969 C 643.074219 449.582031 638.414062 430.175781 629.421875 411.929688 C 638.460938 410.710938 646.515625 407.097656 652.710938 401.96875 C 652.808594 401.980469 652.894531 402.003906 652.992188 402.015625 C 675.800781 405.199219 694.652344 390.5625 696.476562 371.8125 C 697.289062 363.636719 682.191406 363.675781 681.402344 371.8125 Z M 405.839844 138.835938 C 459.339844 138.835938 502.859375 182.332031 502.859375 235.800781 C 502.859375 262.457031 492.050781 286.632812 474.574219 304.175781 C 468.292969 310.488281 461.152344 315.9375 453.332031 320.339844 C 439.28125 328.253906 423.082031 332.765625 405.839844 332.765625 C 386.917969 332.765625 369.238281 327.328125 354.3125 317.921875 C 346.714844 313.152344 339.84375 307.371094 333.847656 300.738281 C 318.304688 283.539062 308.808594 260.753906 308.808594 235.789062 C 308.820312 182.332031 352.339844 138.835938 405.839844 138.835938 Z M 547.660156 584.050781 C 543.121094 586.824219 541.542969 592.667969 544.046875 597.367188 C 544.589844 598.375 544.859375 599.414062 544.859375 600.421875 L 544.859375 661.796875 C 544.859375 666.628906 538.976562 670.859375 532.265625 670.859375 L 489.203125 670.859375 C 482.492188 670.859375 476.621094 666.628906 476.621094 661.796875 L 476.621094 626.386719 C 476.621094 623.355469 475.238281 620.46875 472.882812 618.558594 C 471.082031 617.105469 468.835938 616.328125 466.566406 616.328125 C 465.851562 616.328125 465.148438 616.402344 464.445312 616.550781 C 442.339844 621.320312 419.273438 623.75 395.871094 623.75 C 377.613281 623.75 359.394531 622.246094 341.730469 619.296875 C 338.808594 618.804688 335.835938 619.632812 333.578125 621.542969 C 331.320312 623.441406 330.011719 626.253906 330.011719 629.210938 L 330.011719 661.785156 C 330.011719 666.617188 324.128906 670.84375 317.429688 670.84375 L 274.355469 670.84375 C 267.644531 670.84375 261.773438 666.617188 261.773438 661.785156 L 261.773438 600.71875 C 261.785156 600.582031 261.785156 600.4375 261.796875 600.289062 C 261.921875 596.453125 259.847656 592.890625 256.46875 591.089844 C 225.429688 574.644531 201.082031 552.96875 186.042969 528.449219 C 184.21875 525.464844 180.972656 523.640625 177.457031 523.640625 L 145.410156 523.640625 C 138.699219 523.640625 132.816406 519.410156 132.816406 514.578125 L 132.816406 438.535156 C 132.816406 433.703125 138.699219 429.472656 145.410156 429.472656 L 169.945312 429.472656 C 173.867188 429.472656 177.433594 427.191406 179.074219 423.640625 C 190.609375 398.699219 211.589844 375.917969 239.753906 357.757812 C 243.355469 355.425781 245.082031 351.074219 244.070312 346.921875 L 224.914062 268.730469 C 276.21875 276.953125 295.707031 300.355469 302.921875 319.351562 C 304.75 324.160156 309.894531 326.8125 314.863281 325.519531 C 318.960938 324.445312 323.09375 323.457031 327.261719 322.558594 C 335.675781 330.179688 345.183594 336.601562 355.546875 341.53125 L 355.558594 341.53125 C 316.011719 346.511719 296.484375 356.019531 295.398438 356.5625 C 291.671875 358.421875 290.167969 362.933594 292.019531 366.660156 C 293.867188 370.382812 298.394531 371.898438 302.121094 370.074219 C 302.453125 369.914062 336.351562 353.640625 405.851562 353.640625 C 475.347656 353.640625 509.246094 369.914062 509.554688 370.0625 C 510.640625 370.605469 511.789062 370.863281 512.921875 370.863281 C 515.699219 370.863281 518.363281 369.332031 519.683594 366.683594 C 521.546875 362.960938 520.027344 358.421875 516.304688 356.5625 C 515.21875 356.019531 495.703125 346.511719 456.144531 341.53125 C 464.742188 337.425781 472.757812 332.3125 480.050781 326.332031 C 563.734375 349.078125 622.992188 404.703125 622.992188 469.554688 C 622.992188 512.988281 595.535156 554.722656 547.660156 584.050781 Z M 650.328125 378.925781 C 649.972656 381.847656 649.023438 384.5 647.617188 386.867188 C 641.683594 384.152344 637.230469 379.074219 636.785156 371.613281 C 636.488281 366.574219 638.019531 361.269531 644.816406 365.265625 C 649.886719 368.25 650.933594 374.019531 650.328125 378.925781 Z M 650.328125 378.925781 " fill-opacity="1" fill-rule="nonzero"/></g><path fill="#ff6b00" d="M 247.328125 430.957031 C 247.417969 431.5 247.476562 432.046875 247.511719 432.59375 C 247.546875 433.140625 247.554688 433.6875 247.535156 434.238281 C 247.515625 434.785156 247.46875 435.332031 247.394531 435.875 C 247.324219 436.417969 247.222656 436.957031 247.097656 437.492188 C 246.96875 438.027344 246.816406 438.550781 246.640625 439.070312 C 246.460938 439.589844 246.257812 440.101562 246.03125 440.597656 C 245.804688 441.097656 245.550781 441.585938 245.277344 442.058594 C 245 442.535156 244.703125 442.992188 244.378906 443.4375 C 244.058594 443.882812 243.71875 444.3125 243.355469 444.722656 C 242.992188 445.136719 242.609375 445.527344 242.207031 445.902344 C 241.804688 446.277344 241.386719 446.628906 240.949219 446.960938 C 240.511719 447.296875 240.058594 447.605469 239.59375 447.894531 C 239.125 448.183594 238.644531 448.449219 238.152344 448.6875 C 237.660156 448.929688 237.15625 449.148438 236.640625 449.339844 C 236.128906 449.53125 235.605469 449.695312 235.074219 449.835938 C 234.542969 449.976562 234.007812 450.09375 233.464844 450.179688 C 232.921875 450.269531 232.378906 450.328125 231.832031 450.363281 C 231.28125 450.398438 230.734375 450.40625 230.183594 450.386719 C 229.636719 450.367188 229.089844 450.320312 228.546875 450.246094 C 228.003906 450.171875 227.460938 450.074219 226.929688 449.949219 C 226.394531 449.820312 225.867188 449.667969 225.347656 449.492188 C 224.828125 449.3125 224.320312 449.109375 223.820312 448.882812 C 223.320312 448.65625 222.832031 448.402344 222.359375 448.128906 C 221.882812 447.851562 221.421875 447.554688 220.976562 447.234375 C 220.53125 446.910156 220.105469 446.570312 219.691406 446.207031 C 219.28125 445.84375 218.886719 445.460938 218.511719 445.058594 C 218.140625 444.660156 217.785156 444.238281 217.453125 443.804688 C 217.121094 443.367188 216.808594 442.914062 216.519531 442.449219 C 216.230469 441.980469 215.964844 441.503906 215.726562 441.007812 C 215.484375 440.515625 215.265625 440.011719 215.074219 439.5 C 214.882812 438.984375 214.71875 438.460938 214.578125 437.933594 C 214.4375 437.402344 214.320312 436.867188 214.234375 436.324219 C 214.144531 435.78125 214.085938 435.238281 214.050781 434.691406 C 214.015625 434.140625 214.007812 433.59375 214.027344 433.046875 C 214.046875 432.496094 214.09375 431.953125 214.167969 431.40625 C 214.238281 430.863281 214.339844 430.324219 214.464844 429.789062 C 214.59375 429.257812 214.746094 428.730469 214.921875 428.210938 C 215.101562 427.691406 215.304688 427.183594 215.53125 426.683594 C 215.757812 426.183594 216.011719 425.699219 216.285156 425.222656 C 216.5625 424.75 216.859375 424.289062 217.183594 423.84375 C 217.503906 423.398438 217.84375 422.96875 218.207031 422.558594 C 218.570312 422.148438 218.953125 421.753906 219.355469 421.378906 C 219.757812 421.007812 220.175781 420.652344 220.613281 420.320312 C 221.050781 419.988281 221.5 419.675781 221.96875 419.386719 C 222.4375 419.101562 222.917969 418.835938 223.410156 418.59375 C 223.902344 418.351562 224.40625 418.136719 224.921875 417.945312 C 225.433594 417.753906 225.957031 417.585938 226.488281 417.445312 C 227.019531 417.304688 227.554688 417.191406 228.097656 417.101562 C 228.640625 417.015625 229.183594 416.953125 229.730469 416.917969 C 230.28125 416.886719 230.828125 416.878906 231.378906 416.898438 C 231.925781 416.917969 232.472656 416.964844 233.015625 417.035156 C 233.558594 417.109375 234.101562 417.210938 234.632812 417.335938 C 235.167969 417.460938 235.695312 417.613281 236.214844 417.792969 C 236.734375 417.96875 237.242188 418.171875 237.742188 418.398438 C 238.242188 418.628906 238.730469 418.878906 239.203125 419.15625 C 239.679688 419.429688 240.140625 419.730469 240.585938 420.050781 C 241.03125 420.371094 241.457031 420.710938 241.871094 421.074219 C 242.28125 421.4375 242.675781 421.820312 243.050781 422.222656 C 243.421875 422.625 243.777344 423.042969 244.109375 423.480469 C 244.441406 423.914062 244.753906 424.367188 245.042969 424.832031 C 245.332031 425.300781 245.597656 425.78125 245.835938 426.273438 C 246.078125 426.765625 246.296875 427.269531 246.488281 427.785156 C 246.679688 428.296875 246.84375 428.820312 246.984375 429.351562 C 247.125 429.882812 247.242188 430.417969 247.328125 430.957031 Z M 247.328125 430.957031 " fill-opacity="1" fill-rule="nonzero"/><path fill="#ff6b00" d="M 389.902344 268.667969 C 387.53125 265.539062 385.90625 261.828125 385.054688 257.511719 L 363.921875 259.78125 C 365.550781 270.410156 369.265625 278.632812 375.097656 284.464844 C 380.921875 290.28125 388.507812 293.769531 397.84375 294.894531 L 397.84375 309.625 L 409.578125 309.625 L 409.578125 294.5 C 420.097656 292.996094 428.328125 288.890625 434.234375 282.207031 C 440.144531 275.511719 443.105469 267.289062 443.105469 257.523438 C 443.105469 248.785156 440.761719 241.632812 436.0625 236.046875 C 431.359375 230.464844 422.542969 225.914062 409.589844 222.414062 L 409.589844 190.753906 C 414.820312 193.019531 418.0625 197.335938 419.296875 203.699219 L 439.773438 201.023438 C 438.367188 192.933594 435.136719 186.472656 430.066406 181.640625 C 424.996094 176.808594 418.160156 173.886719 409.589844 172.863281 L 409.589844 164.851562 L 397.859375 164.851562 L 397.859375 172.863281 C 388.570312 173.777344 381.144531 177.253906 375.554688 183.257812 C 369.96875 189.273438 367.179688 196.707031 367.179688 205.546875 C 367.179688 214.289062 369.644531 221.710938 374.59375 227.835938 C 379.527344 233.953125 387.285156 238.527344 397.871094 241.546875 L 397.871094 275.449219 C 394.921875 274.070312 392.28125 271.800781 389.902344 268.667969 Z M 409.578125 245.046875 C 414.4375 246.453125 417.925781 248.464844 420.0625 251.078125 C 422.183594 253.691406 423.257812 256.808594 423.257812 260.421875 C 423.257812 264.464844 421.984375 267.980469 419.457031 270.976562 C 416.917969 273.972656 413.621094 275.84375 409.578125 276.597656 Z M 389.988281 212.5625 C 388.261719 210.109375 387.398438 207.457031 387.398438 204.585938 C 387.398438 201.453125 388.347656 198.59375 390.234375 196.003906 C 392.121094 193.414062 394.664062 191.578125 397.84375 190.503906 L 397.84375 218.492188 C 394.328125 217 391.714844 215.015625 389.988281 212.5625 Z M 389.988281 212.5625 " fill-opacity="1" fill-rule="nonzero"/></svg>